<svg width="12" height="14" viewBox="0 0 12 14" fill="none" xmlns="http://www.w3.org/2000/svg">
<path fill-rule="evenodd" clip-rule="evenodd" d="M2.99924 3C2.99924 1.34315 4.34239 0 5.99924 0C7.6561 0 8.99925 1.34315 8.99925 3C8.99925 4.65685 7.6561 6 5.99924 6C4.34239 6 2.99924 4.65685 2.99924 3Z" fill="#EBFAFF"/>
<path fill-rule="evenodd" clip-rule="evenodd" d="M0.500075 12.4036C0.551635 9.41038 2.9939 7 5.99924 7C9.00466 7 11.447 9.41049 11.4984 12.4038C11.5018 12.6023 11.3875 12.784 11.207 12.8668C9.62106 13.5945 7.85693 14 5.99946 14C4.14182 14 2.37753 13.5945 0.791458 12.8666C0.611012 12.7838 0.496655 12.6021 0.500075 12.4036Z" fill="#EBFAFF"/>
</svg>
